<svg xmlns="http://www.w3.org/2000/svg" xmlns:xlink="http://www.w3.org/1999/xlink" width="500" zoomAndPan="magnify" viewBox="0 0 375 374.999991" height="500" preserveAspectRatio="xMidYMid meet" version="1.2"><defs><clipPath id="3630a9781f"><path d="M 285.199219 0 L 351 0 L 351 72.460938 L 285.199219 72.460938 Z M 285.199219 0 "/></clipPath><clipPath id="061c3a28e1"><path d="M 145.539062 34 L 171 34 L 171 48 L 145.539062 48 Z M 145.539062 34 "/></clipPath><clipPath id="9f023bd719"><path d="M 49.035156 29 L 84 29 L 84 49 L 49.035156 49 Z M 49.035156 29 "/></clipPath><clipPath id="b57eabbd83"><path d="M 90 48 L 113 48 L 113 61.671875 L 90 61.671875 Z M 90 48 "/></clipPath></defs><g id="873badd1ba"><g style="fill:#030d4e;fill-opacity:1;"><g transform="translate(30.979848, 60.313707)"><path style="stroke:none" d="M 18.59375 -42.890625 C 20.875 -42.890625 23.101562 -42.554688 25.28125 -41.890625 C 27.457031 -41.234375 29.070312 -40.582031 30.125 -39.9375 L 31.65625 -38.90625 L 27.78125 -31.25 C 27.46875 -31.457031 27.039062 -31.722656 26.5 -32.046875 C 25.957031 -32.367188 24.9375 -32.800781 23.4375 -33.34375 C 21.9375 -33.882812 20.539062 -34.15625 19.25 -34.15625 C 17.644531 -34.15625 16.410156 -33.816406 15.546875 -33.140625 C 14.679688 -32.460938 14.25 -31.539062 14.25 -30.375 C 14.25 -29.800781 14.453125 -29.265625 14.859375 -28.765625 C 15.265625 -28.273438 15.960938 -27.75 16.953125 -27.1875 C 17.941406 -26.625 18.8125 -26.171875 19.5625 -25.828125 C 20.3125 -25.492188 21.46875 -24.988281 23.03125 -24.3125 C 25.75 -23.144531 28.070312 -21.566406 30 -19.578125 C 31.925781 -17.585938 32.890625 -15.332031 32.890625 -12.8125 C 32.890625 -10.394531 32.453125 -8.285156 31.578125 -6.484375 C 30.710938 -4.679688 29.519531 -3.269531 28 -2.25 C 26.488281 -1.226562 24.8125 -0.472656 22.96875 0.015625 C 21.132812 0.515625 19.144531 0.765625 17 0.765625 C 15.164062 0.765625 13.363281 0.578125 11.59375 0.203125 C 9.820312 -0.171875 8.335938 -0.640625 7.140625 -1.203125 C 5.953125 -1.765625 4.878906 -2.316406 3.921875 -2.859375 C 2.972656 -3.398438 2.28125 -3.859375 1.84375 -4.234375 L 1.171875 -4.796875 L 5.96875 -12.875 C 6.382812 -12.53125 6.945312 -12.09375 7.65625 -11.5625 C 8.375 -11.039062 9.644531 -10.335938 11.46875 -9.453125 C 13.289062 -8.566406 14.894531 -8.125 16.28125 -8.125 C 20.332031 -8.125 22.359375 -9.5 22.359375 -12.25 C 22.359375 -12.832031 22.210938 -13.367188 21.921875 -13.859375 C 21.640625 -14.359375 21.128906 -14.851562 20.390625 -15.34375 C 19.660156 -15.832031 19.015625 -16.222656 18.453125 -16.515625 C 17.890625 -16.804688 16.96875 -17.25 15.6875 -17.84375 C 14.414062 -18.4375 13.476562 -18.890625 12.875 -19.203125 C 10.3125 -20.460938 8.332031 -22.035156 6.9375 -23.921875 C 5.539062 -25.804688 4.84375 -27.84375 4.84375 -30.03125 C 4.84375 -33.800781 6.238281 -36.882812 9.03125 -39.28125 C 11.820312 -41.6875 15.007812 -42.890625 18.59375 -42.890625 Z M 18.59375 -42.890625 "/></g></g><g style="fill:#030d4e;fill-opacity:1;"><g transform="translate(60.951158, 60.313707)"><path style="stroke:none" d="M 41.40625 0 L 28.1875 0 L 12.65625 -17.875 L 12.65625 0 L 3.0625 0 L 3.0625 -42.125 L 12.65625 -42.125 L 12.65625 -24.921875 L 27.109375 -42.125 L 38.75 -42.125 L 21.796875 -22.15625 Z M 41.40625 0 "/></g></g><g style="fill:#030d4e;fill-opacity:1;"><g transform="translate(96.794264, 60.313707)"><path style="stroke:none" d="M -1.53125 -42.125 L 10.015625 -42.125 L 18.796875 -28.640625 L 27.578125 -42.125 L 39.109375 -42.125 L 23.59375 -18.890625 L 23.59375 0 L 13.984375 0 L 13.984375 -18.890625 Z M -1.53125 -42.125 "/></g></g><g style="fill:#030d4e;fill-opacity:1;"><g transform="translate(130.033359, 60.313707)"><path style="stroke:none" d=""/></g></g><g style="fill:#030d4e;fill-opacity:1;"><g transform="translate(139.632068, 60.313707)"><path style="stroke:none" d="M 35.390625 0 L 28.640625 -23.640625 L 21.90625 0 L 11.234375 0 L -0.765625 -42.125 L 9.90625 -42.125 L 17.109375 -13.21875 L 17.359375 -13.21875 L 25.015625 -42.125 L 32.265625 -42.125 L 39.9375 -13.21875 L 40.1875 -13.21875 L 47.390625 -42.125 L 58 -42.125 L 46 0 Z M 35.390625 0 "/></g></g><g style="fill:#030d4e;fill-opacity:1;"><g transform="translate(192.528928, 60.313707)"><path style="stroke:none" d="M 12.65625 -42.125 L 12.65625 0 L 3.0625 0 L 3.0625 -42.125 Z M 12.65625 -42.125 "/></g></g><g style="fill:#030d4e;fill-opacity:1;"><g transform="translate(203.914696, 60.313707)"><path style="stroke:none" d="M 12.65625 -26.140625 L 12.65625 0 L 3.0625 0 L 3.0625 -42.125 L 12.65625 -42.125 L 29.40625 -15.984375 L 29.515625 -15.984375 L 29.515625 -42.125 L 39.109375 -42.125 L 39.109375 0 L 29.515625 0 L 12.765625 -26.140625 Z M 12.65625 -26.140625 "/></g></g><g style="fill:#030d4e;fill-opacity:1;"><g transform="translate(241.749116, 60.313707)"><path style="stroke:none" d="M 41.15625 -23.59375 L 41.15625 -14.453125 C 40.0625 -9.441406 37.675781 -5.648438 34 -3.078125 C 30.332031 -0.515625 26.234375 0.765625 21.703125 0.765625 C 16.015625 0.765625 11.171875 -1.359375 7.171875 -5.609375 C 3.171875 -9.867188 1.171875 -15.007812 1.171875 -21.03125 C 1.171875 -27.164062 3.128906 -32.34375 7.046875 -36.5625 C 10.960938 -40.78125 15.847656 -42.890625 21.703125 -42.890625 C 28.546875 -42.890625 33.957031 -40.488281 37.9375 -35.6875 L 31.65625 -28.796875 C 29.40625 -32.410156 26.273438 -34.21875 22.265625 -34.21875 C 19.304688 -34.21875 16.78125 -32.929688 14.6875 -30.359375 C 12.59375 -27.785156 11.546875 -24.675781 11.546875 -21.03125 C 11.546875 -17.457031 12.59375 -14.398438 14.6875 -11.859375 C 16.78125 -9.328125 19.304688 -8.0625 22.265625 -8.0625 C 24.710938 -8.0625 26.847656 -8.800781 28.671875 -10.28125 C 30.492188 -11.769531 31.40625 -13.738281 31.40625 -16.1875 L 21.703125 -16.1875 L 21.703125 -23.59375 Z M 41.15625 -23.59375 "/></g></g><g style="fill:#030d4e;fill-opacity:1;"><g transform="translate(279.7367, 60.313707)"><path style="stroke:none" d="M 18.59375 -42.890625 C 20.875 -42.890625 23.101562 -42.554688 25.28125 -41.890625 C 27.457031 -41.234375 29.070312 -40.582031 30.125 -39.9375 L 31.65625 -38.90625 L 27.78125 -31.25 C 27.46875 -31.457031 27.039062 -31.722656 26.5 -32.046875 C 25.957031 -32.367188 24.9375 -32.800781 23.4375 -33.34375 C 21.9375 -33.882812 20.539062 -34.15625 19.25 -34.15625 C 17.644531 -34.15625 16.410156 -33.816406 15.546875 -33.140625 C 14.679688 -32.460938 14.25 -31.539062 14.25 -30.375 C 14.25 -29.800781 14.453125 -29.265625 14.859375 -28.765625 C 15.265625 -28.273438 15.960938 -27.75 16.953125 -27.1875 C 17.941406 -26.625 18.8125 -26.171875 19.5625 -25.828125 C 20.3125 -25.492188 21.46875 -24.988281 23.03125 -24.3125 C 25.75 -23.144531 28.070312 -21.566406 30 -19.578125 C 31.925781 -17.585938 32.890625 -15.332031 32.890625 -12.8125 C 32.890625 -10.394531 32.453125 -8.285156 31.578125 -6.484375 C 30.710938 -4.679688 29.519531 -3.269531 28 -2.25 C 26.488281 -1.226562 24.8125 -0.472656 22.96875 0.015625 C 21.132812 0.515625 19.144531 0.765625 17 0.765625 C 15.164062 0.765625 13.363281 0.578125 11.59375 0.203125 C 9.820312 -0.171875 8.335938 -0.640625 7.140625 -1.203125 C 5.953125 -1.765625 4.878906 -2.316406 3.921875 -2.859375 C 2.972656 -3.398438 2.28125 -3.859375 1.84375 -4.234375 L 1.171875 -4.796875 L 5.96875 -12.875 C 6.382812 -12.53125 6.945312 -12.09375 7.65625 -11.5625 C 8.375 -11.039062 9.644531 -10.335938 11.46875 -9.453125 C 13.289062 -8.566406 14.894531 -8.125 16.28125 -8.125 C 20.332031 -8.125 22.359375 -9.5 22.359375 -12.25 C 22.359375 -12.832031 22.210938 -13.367188 21.921875 -13.859375 C 21.640625 -14.359375 21.128906 -14.851562 20.390625 -15.34375 C 19.660156 -15.832031 19.015625 -16.222656 18.453125 -16.515625 C 17.890625 -16.804688 16.96875 -17.25 15.6875 -17.84375 C 14.414062 -18.4375 13.476562 -18.890625 12.875 -19.203125 C 10.3125 -20.460938 8.332031 -22.035156 6.9375 -23.921875 C 5.539062 -25.804688 4.84375 -27.84375 4.84375 -30.03125 C 4.84375 -33.800781 6.238281 -36.882812 9.03125 -39.28125 C 11.820312 -41.6875 15.007812 -42.890625 18.59375 -42.890625 Z M 18.59375 -42.890625 "/></g></g><g clip-rule="nonzero" clip-path="url(#3630a9781f)"><path style=" stroke:none;fill-rule:nonzero;fill:#ed1c24;fill-opacity:1;" d="M 285.199219 72.335938 C 288.132812 67.503906 296.601562 63.578125 301.847656 62.089844 C 312.050781 59.117188 318.082031 59.820312 328.203125 56.515625 C 338.78125 53.042969 346.382812 47.796875 350.015625 37.386719 C 352.824219 43.914062 348.53125 56.761719 342.414062 60.148438 C 335.476562 63.992188 331.261719 64.40625 317.710938 64.40625 C 303.417969 64.40625 302.921875 64.527344 296.476562 66.347656 C 292.675781 67.339844 288.460938 70.230469 285.199219 72.335938 Z M 319.445312 51.929688 C 323.824219 50.109375 326.304688 48.914062 330.394531 46.558594 C 336.632812 43.003906 342.582031 37.511719 344.5625 30.652344 C 346.132812 25.199219 345.222656 19.25 343.035156 14.003906 C 342.332031 12.3125 341.507812 10.699219 340.597656 9.089844 C 339.480469 20.035156 336.054688 30.902344 328.863281 39.203125 C 325.972656 42.550781 317.296875 50.691406 310.316406 55.523438 C 312.792969 54.324219 316.96875 52.960938 319.445312 51.929688 Z M 324.15625 38.171875 C 326.46875 35.199219 327.625 33.585938 329.566406 30.363281 C 332.5 25.449219 333.945312 19.457031 332.625 13.878906 C 331.589844 9.417969 329.238281 5.246094 325.683594 2.480469 C 324.527344 1.570312 323.328125 0.785156 322.046875 0 C 325.558594 8.054688 327.667969 18.753906 325.933594 27.308594 C 325.230469 30.777344 322.917969 38.128906 319.238281 44.246094 C 320.480469 42.46875 322.832031 39.867188 324.15625 38.171875 Z M 324.15625 38.171875 "/></g><g clip-rule="nonzero" clip-path="url(#061c3a28e1)"><path style=" stroke:none;fill-rule:nonzero;fill:#ffffff;fill-opacity:1;" d="M 149.570312 43.5625 C 151.304688 42.535156 153.609375 41.875 154.820312 42.355469 C 156.03125 42.832031 158.859375 46.164062 159.066406 47.417969 C 159.246094 48.675781 163.878906 46.257812 163.171875 45.617188 C 162.464844 44.976562 159.019531 42.535156 158.789062 41.667969 C 158.539062 40.800781 161.164062 40.4375 162.417969 38.839844 C 163.675781 37.242188 165.773438 36.375 166.984375 36.375 C 168.214844 36.375 171.59375 35.875 170.085938 35.53125 C 167.804688 34.984375 162.144531 34.59375 160.546875 34.183594 C 158.949219 33.773438 156.804688 36.898438 155.777344 36.761719 C 154.753906 36.625 153.976562 34.34375 153.199219 34.710938 C 152.425781 35.074219 152.835938 37.699219 152.445312 37.882812 C 152.058594 38.0625 149.320312 38.359375 148.339844 39.753906 C 147.359375 41.144531 145.625 45.960938 145.964844 47.488281 C 146.285156 48.972656 147.835938 44.613281 149.570312 43.5625 Z M 149.570312 43.5625 "/></g><path style=" stroke:none;fill-rule:nonzero;fill:#ffffff;fill-opacity:1;" d="M 190.644531 48.355469 C 190.03125 49.085938 186.425781 52.304688 185.261719 53.742188 C 184.097656 55.179688 183.59375 56.089844 182.25 55.40625 C 180.902344 54.722656 178.941406 53.148438 178.234375 52.304688 C 177.523438 51.4375 175.199219 47.464844 174.925781 47.785156 C 174.648438 48.105469 175.199219 52.304688 177.34375 53.328125 C 179.511719 54.355469 180.582031 55.0625 179.785156 55.246094 C 179.007812 55.429688 178.734375 54.609375 178.414062 55.335938 C 178.097656 56.066406 178.027344 56.5 178.550781 56.363281 C 179.101562 56.25 180.378906 57.347656 181.335938 58.257812 C 182.292969 59.171875 184.554688 59.515625 186.46875 59.421875 C 188.386719 59.332031 188.433594 59.101562 188.84375 58.851562 C 189.253906 58.601562 186.996094 58.554688 185.878906 57.960938 C 184.757812 57.367188 184.871094 57.207031 185.191406 56.777344 C 185.511719 56.363281 185.921875 56.066406 187.199219 55.335938 C 188.476562 54.609375 189.894531 53.285156 190.28125 51.664062 C 190.691406 50.042969 190.988281 47.945312 190.644531 48.355469 Z M 190.644531 48.355469 "/><g clip-rule="nonzero" clip-path="url(#9f023bd719)"><path style=" stroke:none;fill-rule:nonzero;fill:#ffffff;fill-opacity:1;" d="M 54.675781 42.238281 C 57.101562 40.800781 60.324219 39.875 62.015625 40.546875 C 63.707031 41.214844 67.664062 45.875 67.953125 47.632812 C 68.207031 49.386719 74.6875 46.003906 73.695312 45.109375 C 72.707031 44.214844 67.890625 40.800781 67.570312 39.589844 C 67.21875 38.375 70.890625 37.863281 72.644531 35.632812 C 74.398438 33.398438 77.335938 32.183594 79.027344 32.183594 C 80.75 32.183594 85.472656 31.480469 83.367188 31.003906 C 80.175781 30.238281 72.261719 29.695312 70.027344 29.121094 C 67.792969 28.546875 64.792969 32.917969 63.355469 32.726562 C 61.921875 32.535156 60.835938 29.34375 59.75 29.855469 C 58.664062 30.363281 59.238281 34.035156 58.699219 34.289062 C 58.15625 34.546875 54.324219 34.960938 52.953125 36.90625 C 51.582031 38.855469 49.15625 45.589844 49.632812 47.726562 C 50.082031 49.800781 52.25 43.707031 54.675781 42.238281 Z M 54.675781 42.238281 "/></g><g clip-rule="nonzero" clip-path="url(#b57eabbd83)"><path style=" stroke:none;fill-rule:nonzero;fill:#ffffff;fill-opacity:1;" d="M 112.121094 48.9375 C 111.261719 49.960938 106.21875 54.460938 104.589844 56.472656 C 102.964844 58.480469 102.261719 59.757812 100.378906 58.800781 C 98.496094 57.84375 95.75 55.640625 94.761719 54.460938 C 93.773438 53.246094 90.515625 47.695312 90.132812 48.140625 C 89.75 48.589844 90.515625 54.460938 93.515625 55.898438 C 96.546875 57.332031 98.046875 58.324219 96.929688 58.578125 C 95.847656 58.832031 95.464844 57.683594 95.015625 58.707031 C 94.570312 59.726562 94.472656 60.332031 95.207031 60.140625 C 95.972656 59.980469 97.761719 61.515625 99.101562 62.789062 C 100.441406 64.066406 103.601562 64.546875 106.28125 64.417969 C 108.960938 64.289062 109.027344 63.972656 109.601562 63.621094 C 110.175781 63.269531 107.015625 63.207031 105.453125 62.375 C 103.886719 61.546875 104.046875 61.324219 104.496094 60.714844 C 104.941406 60.140625 105.515625 59.726562 107.304688 58.707031 C 109.089844 57.683594 111.070312 55.832031 111.613281 53.566406 C 112.1875 51.300781 112.601562 48.363281 112.121094 48.9375 Z M 112.121094 48.9375 "/></g><g style="fill:#030d4e;fill-opacity:1;"><g transform="translate(62.702614, 82.025896)"><path style="stroke:none" d="M 8.46875 -9.609375 L 8.46875 0 L 7.21875 0 L 7.21875 -4.359375 L 2.3125 -4.359375 L 2.3125 0 L 1.0625 0 L 1.0625 -9.609375 L 2.3125 -9.609375 L 2.3125 -5.390625 L 7.21875 -5.390625 L 7.21875 -9.609375 Z M 8.46875 -9.609375 "/></g></g><g style="fill:#030d4e;fill-opacity:1;"><g transform="translate(72.253445, 82.025896)"><path style="stroke:none" d="M 4.359375 0.125 C 3.648438 0.125 3.007812 -0.0351562 2.4375 -0.359375 C 1.863281 -0.679688 1.410156 -1.140625 1.078125 -1.734375 C 0.753906 -2.328125 0.59375 -3.015625 0.59375 -3.796875 C 0.59375 -4.566406 0.757812 -5.25 1.09375 -5.84375 C 1.425781 -6.4375 1.882812 -6.890625 2.46875 -7.203125 C 3.050781 -7.523438 3.703125 -7.6875 4.421875 -7.6875 C 5.128906 -7.6875 5.773438 -7.523438 6.359375 -7.203125 C 6.941406 -6.890625 7.398438 -6.4375 7.734375 -5.84375 C 8.066406 -5.257812 8.234375 -4.578125 8.234375 -3.796875 C 8.234375 -3.015625 8.0625 -2.328125 7.71875 -1.734375 C 7.375 -1.140625 6.90625 -0.679688 6.3125 -0.359375 C 5.726562 -0.0351562 5.078125 0.125 4.359375 0.125 Z M 4.359375 -0.984375 C 4.804688 -0.984375 5.226562 -1.085938 5.625 -1.296875 C 6.019531 -1.503906 6.335938 -1.820312 6.578125 -2.25 C 6.828125 -2.675781 6.953125 -3.191406 6.953125 -3.796875 C 6.953125 -4.398438 6.832031 -4.910156 6.59375 -5.328125 C 6.351562 -5.753906 6.039062 -6.070312 5.65625 -6.28125 C 5.269531 -6.488281 4.851562 -6.59375 4.40625 -6.59375 C 3.945312 -6.59375 3.523438 -6.488281 3.140625 -6.28125 C 2.753906 -6.070312 2.445312 -5.753906 2.21875 -5.328125 C 1.988281 -4.910156 1.875 -4.398438 1.875 -3.796875 C 1.875 -3.179688 1.984375 -2.660156 2.203125 -2.234375 C 2.429688 -1.804688 2.734375 -1.488281 3.109375 -1.28125 C 3.492188 -1.082031 3.910156 -0.984375 4.359375 -0.984375 Z M 4.359375 -0.984375 "/></g></g><g style="fill:#030d4e;fill-opacity:1;"><g transform="translate(81.086588, 82.025896)"><path style="stroke:none" d="M 2.3125 -10.203125 L 2.3125 0 L 1.0625 0 L 1.0625 -10.203125 Z M 2.3125 -10.203125 "/></g></g><g style="fill:#030d4e;fill-opacity:1;"><g transform="translate(84.481829, 82.025896)"><path style="stroke:none" d="M 1.703125 -8.78125 C 1.472656 -8.78125 1.273438 -8.863281 1.109375 -9.03125 C 0.941406 -9.195312 0.859375 -9.398438 0.859375 -9.640625 C 0.859375 -9.878906 0.941406 -10.082031 1.109375 -10.25 C 1.273438 -10.414062 1.472656 -10.5 1.703125 -10.5 C 1.941406 -10.5 2.140625 -10.414062 2.296875 -10.25 C 2.453125 -10.082031 2.53125 -9.878906 2.53125 -9.640625 C 2.53125 -9.398438 2.453125 -9.195312 2.296875 -9.03125 C 2.140625 -8.863281 1.941406 -8.78125 1.703125 -8.78125 Z M 2.3125 -7.5625 L 2.3125 0 L 1.0625 0 L 1.0625 -7.5625 Z M 2.3125 -7.5625 "/></g></g><g style="fill:#030d4e;fill-opacity:1;"><g transform="translate(87.87707, 82.025896)"><path style="stroke:none" d="M 0.59375 -3.8125 C 0.59375 -4.582031 0.75 -5.257812 1.0625 -5.84375 C 1.375 -6.425781 1.800781 -6.878906 2.34375 -7.203125 C 2.894531 -7.523438 3.507812 -7.6875 4.1875 -7.6875 C 4.78125 -7.6875 5.328125 -7.550781 5.828125 -7.28125 C 6.335938 -7.007812 6.726562 -6.648438 7 -6.203125 L 7 -10.203125 L 8.265625 -10.203125 L 8.265625 0 L 7 0 L 7 -1.421875 C 6.75 -0.972656 6.378906 -0.601562 5.890625 -0.3125 C 5.398438 -0.0195312 4.832031 0.125 4.1875 0.125 C 3.507812 0.125 2.894531 -0.0390625 2.34375 -0.375 C 1.800781 -0.707031 1.375 -1.171875 1.0625 -1.765625 C 0.75 -2.359375 0.59375 -3.039062 0.59375 -3.8125 Z M 7 -3.796875 C 7 -4.367188 6.882812 -4.863281 6.65625 -5.28125 C 6.425781 -5.707031 6.113281 -6.03125 5.71875 -6.25 C 5.320312 -6.476562 4.890625 -6.59375 4.421875 -6.59375 C 3.953125 -6.59375 3.523438 -6.484375 3.140625 -6.265625 C 2.753906 -6.046875 2.445312 -5.722656 2.21875 -5.296875 C 1.988281 -4.867188 1.875 -4.375 1.875 -3.8125 C 1.875 -3.226562 1.988281 -2.722656 2.21875 -2.296875 C 2.445312 -1.867188 2.753906 -1.539062 3.140625 -1.3125 C 3.523438 -1.09375 3.953125 -0.984375 4.421875 -0.984375 C 4.890625 -0.984375 5.320312 -1.09375 5.71875 -1.3125 C 6.113281 -1.539062 6.425781 -1.867188 6.65625 -2.296875 C 6.882812 -2.722656 7 -3.222656 7 -3.796875 Z M 7 -3.796875 "/></g></g><g style="fill:#030d4e;fill-opacity:1;"><g transform="translate(97.207078, 82.025896)"><path style="stroke:none" d="M 0.59375 -3.8125 C 0.59375 -4.582031 0.75 -5.257812 1.0625 -5.84375 C 1.375 -6.425781 1.800781 -6.878906 2.34375 -7.203125 C 2.894531 -7.523438 3.507812 -7.6875 4.1875 -7.6875 C 4.84375 -7.6875 5.414062 -7.539062 5.90625 -7.25 C 6.394531 -6.96875 6.757812 -6.613281 7 -6.1875 L 7 -7.5625 L 8.265625 -7.5625 L 8.265625 0 L 7 0 L 7 -1.40625 C 6.75 -0.96875 6.375 -0.601562 5.875 -0.3125 C 5.382812 -0.0195312 4.816406 0.125 4.171875 0.125 C 3.492188 0.125 2.882812 -0.0390625 2.34375 -0.375 C 1.800781 -0.707031 1.375 -1.171875 1.0625 -1.765625 C 0.75 -2.359375 0.59375 -3.039062 0.59375 -3.8125 Z M 7 -3.796875 C 7 -4.367188 6.882812 -4.863281 6.65625 -5.28125 C 6.425781 -5.707031 6.113281 -6.03125 5.71875 -6.25 C 5.320312 -6.476562 4.890625 -6.59375 4.421875 -6.59375 C 3.953125 -6.59375 3.523438 -6.484375 3.140625 -6.265625 C 2.753906 -6.046875 2.445312 -5.722656 2.21875 -5.296875 C 1.988281 -4.867188 1.875 -4.375 1.875 -3.8125 C 1.875 -3.226562 1.988281 -2.722656 2.21875 -2.296875 C 2.445312 -1.867188 2.753906 -1.539062 3.140625 -1.3125 C 3.523438 -1.09375 3.953125 -0.984375 4.421875 -0.984375 C 4.890625 -0.984375 5.320312 -1.09375 5.71875 -1.3125 C 6.113281 -1.539062 6.425781 -1.867188 6.65625 -2.296875 C 6.882812 -2.722656 7 -3.222656 7 -3.796875 Z M 7 -3.796875 "/></g></g><g style="fill:#030d4e;fill-opacity:1;"><g transform="translate(106.537086, 82.025896)"><path style="stroke:none" d="M 7.578125 -7.5625 L 3.015625 3.5625 L 1.71875 3.5625 L 3.21875 -0.078125 L 0.171875 -7.5625 L 1.5625 -7.5625 L 3.9375 -1.4375 L 6.28125 -7.5625 Z M 7.578125 -7.5625 "/></g></g><g style="fill:#030d4e;fill-opacity:1;"><g transform="translate(114.307494, 82.025896)"><path style="stroke:none" d="M 3.734375 0.125 C 3.160156 0.125 2.640625 0.0234375 2.171875 -0.171875 C 1.710938 -0.367188 1.347656 -0.644531 1.078125 -1 C 0.816406 -1.351562 0.675781 -1.757812 0.65625 -2.21875 L 1.953125 -2.21875 C 1.984375 -1.84375 2.15625 -1.535156 2.46875 -1.296875 C 2.789062 -1.054688 3.207031 -0.9375 3.71875 -0.9375 C 4.195312 -0.9375 4.570312 -1.039062 4.84375 -1.25 C 5.125 -1.46875 5.265625 -1.738281 5.265625 -2.0625 C 5.265625 -2.382812 5.117188 -2.625 4.828125 -2.78125 C 4.535156 -2.945312 4.082031 -3.109375 3.46875 -3.265625 C 2.90625 -3.410156 2.445312 -3.5625 2.09375 -3.71875 C 1.738281 -3.875 1.429688 -4.097656 1.171875 -4.390625 C 0.921875 -4.691406 0.796875 -5.085938 0.796875 -5.578125 C 0.796875 -5.960938 0.910156 -6.316406 1.140625 -6.640625 C 1.367188 -6.960938 1.695312 -7.21875 2.125 -7.40625 C 2.550781 -7.59375 3.035156 -7.6875 3.578125 -7.6875 C 4.410156 -7.6875 5.082031 -7.472656 5.59375 -7.046875 C 6.113281 -6.628906 6.390625 -6.050781 6.421875 -5.3125 L 5.171875 -5.3125 C 5.140625 -5.707031 4.976562 -6.023438 4.6875 -6.265625 C 4.40625 -6.503906 4.019531 -6.625 3.53125 -6.625 C 3.082031 -6.625 2.722656 -6.523438 2.453125 -6.328125 C 2.191406 -6.140625 2.0625 -5.890625 2.0625 -5.578125 C 2.0625 -5.328125 2.140625 -5.117188 2.296875 -4.953125 C 2.453125 -4.796875 2.648438 -4.664062 2.890625 -4.5625 C 3.140625 -4.46875 3.484375 -4.363281 3.921875 -4.25 C 4.460938 -4.101562 4.898438 -3.957031 5.234375 -3.8125 C 5.578125 -3.664062 5.867188 -3.453125 6.109375 -3.171875 C 6.359375 -2.890625 6.488281 -2.519531 6.5 -2.0625 C 6.5 -1.644531 6.382812 -1.269531 6.15625 -0.9375 C 5.925781 -0.601562 5.597656 -0.34375 5.171875 -0.15625 C 4.753906 0.03125 4.273438 0.125 3.734375 0.125 Z M 3.734375 0.125 "/></g></g><g style="fill:#030d4e;fill-opacity:1;"><g transform="translate(121.512024, 82.025896)"><path style="stroke:none" d=""/></g></g><g style="fill:#030d4e;fill-opacity:1;"><g transform="translate(125.197102, 82.025896)"><path style="stroke:none" d="M 2.640625 1.46875 L 1.375 1.46875 L 1.375 -10.96875 L 2.640625 -10.96875 Z M 2.640625 1.46875 "/></g></g><g style="fill:#030d4e;fill-opacity:1;"><g transform="translate(129.213419, 82.025896)"><path style="stroke:none" d=""/></g></g><g style="fill:#030d4e;fill-opacity:1;"><g transform="translate(132.898497, 82.025896)"><path style="stroke:none" d="M 2.3125 -9.609375 L 2.3125 0 L 1.0625 0 L 1.0625 -9.609375 Z M 2.3125 -9.609375 "/></g></g><g style="fill:#030d4e;fill-opacity:1;"><g transform="translate(136.293738, 82.025896)"><path style="stroke:none" d="M 4.75 -7.703125 C 5.664062 -7.703125 6.410156 -7.421875 6.984375 -6.859375 C 7.554688 -6.304688 7.84375 -5.503906 7.84375 -4.453125 L 7.84375 0 L 6.59375 0 L 6.59375 -4.28125 C 6.59375 -5.03125 6.40625 -5.601562 6.03125 -6 C 5.65625 -6.40625 5.140625 -6.609375 4.484375 -6.609375 C 3.816406 -6.609375 3.285156 -6.398438 2.890625 -5.984375 C 2.503906 -5.566406 2.3125 -4.96875 2.3125 -4.1875 L 2.3125 0 L 1.0625 0 L 1.0625 -7.5625 L 2.3125 -7.5625 L 2.3125 -6.484375 C 2.5625 -6.867188 2.898438 -7.164062 3.328125 -7.375 C 3.753906 -7.59375 4.226562 -7.703125 4.75 -7.703125 Z M 4.75 -7.703125 "/></g></g><g style="fill:#030d4e;fill-opacity:1;"><g transform="translate(145.12688, 82.025896)"><path style="stroke:none" d="M 3.875 -1.15625 L 6.21875 -7.5625 L 7.5625 -7.5625 L 4.59375 0 L 3.125 0 L 0.171875 -7.5625 L 1.515625 -7.5625 Z M 3.875 -1.15625 "/></g></g><g style="fill:#030d4e;fill-opacity:1;"><g transform="translate(152.86968, 82.025896)"><path style="stroke:none" d="M 7.953125 -4.0625 C 7.953125 -3.832031 7.941406 -3.582031 7.921875 -3.3125 L 1.875 -3.3125 C 1.925781 -2.5625 2.179688 -1.976562 2.640625 -1.5625 C 3.109375 -1.144531 3.671875 -0.9375 4.328125 -0.9375 C 4.867188 -0.9375 5.320312 -1.0625 5.6875 -1.3125 C 6.050781 -1.570312 6.304688 -1.910156 6.453125 -2.328125 L 7.8125 -2.328125 C 7.601562 -1.597656 7.195312 -1.003906 6.59375 -0.546875 C 5.988281 -0.0976562 5.234375 0.125 4.328125 0.125 C 3.609375 0.125 2.96875 -0.0351562 2.40625 -0.359375 C 1.84375 -0.679688 1.398438 -1.140625 1.078125 -1.734375 C 0.753906 -2.328125 0.59375 -3.015625 0.59375 -3.796875 C 0.59375 -4.578125 0.75 -5.257812 1.0625 -5.84375 C 1.375 -6.4375 1.8125 -6.890625 2.375 -7.203125 C 2.945312 -7.523438 3.597656 -7.6875 4.328125 -7.6875 C 5.046875 -7.6875 5.679688 -7.53125 6.234375 -7.21875 C 6.785156 -6.90625 7.207031 -6.472656 7.5 -5.921875 C 7.800781 -5.378906 7.953125 -4.757812 7.953125 -4.0625 Z M 6.65625 -4.328125 C 6.65625 -4.804688 6.550781 -5.21875 6.34375 -5.5625 C 6.132812 -5.90625 5.847656 -6.164062 5.484375 -6.34375 C 5.117188 -6.53125 4.71875 -6.625 4.28125 -6.625 C 3.644531 -6.625 3.101562 -6.421875 2.65625 -6.015625 C 2.207031 -5.609375 1.953125 -5.046875 1.890625 -4.328125 Z M 6.65625 -4.328125 "/></g></g><g style="fill:#030d4e;fill-opacity:1;"><g transform="translate(161.42679, 82.025896)"><path style="stroke:none" d="M 3.734375 0.125 C 3.160156 0.125 2.640625 0.0234375 2.171875 -0.171875 C 1.710938 -0.367188 1.347656 -0.644531 1.078125 -1 C 0.816406 -1.351562 0.675781 -1.757812 0.65625 -2.21875 L 1.953125 -2.21875 C 1.984375 -1.84375 2.15625 -1.535156 2.46875 -1.296875 C 2.789062 -1.054688 3.207031 -0.9375 3.71875 -0.9375 C 4.195312 -0.9375 4.570312 -1.039062 4.84375 -1.25 C 5.125 -1.46875 5.265625 -1.738281 5.265625 -2.0625 C 5.265625 -2.382812 5.117188 -2.625 4.828125 -2.78125 C 4.535156 -2.945312 4.082031 -3.109375 3.46875 -3.265625 C 2.90625 -3.410156 2.445312 -3.5625 2.09375 -3.71875 C 1.738281 -3.875 1.429688 -4.097656 1.171875 -4.390625 C 0.921875 -4.691406 0.796875 -5.085938 0.796875 -5.578125 C 0.796875 -5.960938 0.910156 -6.316406 1.140625 -6.640625 C 1.367188 -6.960938 1.695312 -7.21875 2.125 -7.40625 C 2.550781 -7.59375 3.035156 -7.6875 3.578125 -7.6875 C 4.410156 -7.6875 5.082031 -7.472656 5.59375 -7.046875 C 6.113281 -6.628906 6.390625 -6.050781 6.421875 -5.3125 L 5.171875 -5.3125 C 5.140625 -5.707031 4.976562 -6.023438 4.6875 -6.265625 C 4.40625 -6.503906 4.019531 -6.625 3.53125 -6.625 C 3.082031 -6.625 2.722656 -6.523438 2.453125 -6.328125 C 2.191406 -6.140625 2.0625 -5.890625 2.0625 -5.578125 C 2.0625 -5.328125 2.140625 -5.117188 2.296875 -4.953125 C 2.453125 -4.796875 2.648438 -4.664062 2.890625 -4.5625 C 3.140625 -4.46875 3.484375 -4.363281 3.921875 -4.25 C 4.460938 -4.101562 4.898438 -3.957031 5.234375 -3.8125 C 5.578125 -3.664062 5.867188 -3.453125 6.109375 -3.171875 C 6.359375 -2.890625 6.488281 -2.519531 6.5 -2.0625 C 6.5 -1.644531 6.382812 -1.269531 6.15625 -0.9375 C 5.925781 -0.601562 5.597656 -0.34375 5.171875 -0.15625 C 4.753906 0.03125 4.273438 0.125 3.734375 0.125 Z M 3.734375 0.125 "/></g></g><g style="fill:#030d4e;fill-opacity:1;"><g transform="translate(168.63132, 82.025896)"><path style="stroke:none" d="M 2.59375 -6.53125 L 2.59375 -2.0625 C 2.59375 -1.695312 2.671875 -1.4375 2.828125 -1.28125 C 2.984375 -1.132812 3.253906 -1.0625 3.640625 -1.0625 L 4.5625 -1.0625 L 4.5625 0 L 3.4375 0 C 2.738281 0 2.210938 -0.160156 1.859375 -0.484375 C 1.515625 -0.804688 1.34375 -1.332031 1.34375 -2.0625 L 1.34375 -6.53125 L 0.359375 -6.53125 L 0.359375 -7.5625 L 1.34375 -7.5625 L 1.34375 -9.46875 L 2.59375 -9.46875 L 2.59375 -7.5625 L 4.5625 -7.5625 L 4.5625 -6.53125 Z M 2.59375 -6.53125 "/></g></g><g style="fill:#030d4e;fill-opacity:1;"><g transform="translate(173.655174, 82.025896)"><path style="stroke:none" d="M 10.15625 -7.703125 C 10.738281 -7.703125 11.257812 -7.578125 11.71875 -7.328125 C 12.1875 -7.085938 12.550781 -6.722656 12.8125 -6.234375 C 13.082031 -5.742188 13.21875 -5.148438 13.21875 -4.453125 L 13.21875 0 L 11.96875 0 L 11.96875 -4.28125 C 11.96875 -5.03125 11.78125 -5.601562 11.40625 -6 C 11.039062 -6.40625 10.539062 -6.609375 9.90625 -6.609375 C 9.25 -6.609375 8.726562 -6.398438 8.34375 -5.984375 C 7.957031 -5.566406 7.765625 -4.960938 7.765625 -4.171875 L 7.765625 0 L 6.53125 0 L 6.53125 -4.28125 C 6.53125 -5.03125 6.34375 -5.601562 5.96875 -6 C 5.59375 -6.40625 5.085938 -6.609375 4.453125 -6.609375 C 3.804688 -6.609375 3.285156 -6.398438 2.890625 -5.984375 C 2.503906 -5.566406 2.3125 -4.960938 2.3125 -4.171875 L 2.3125 0 L 1.0625 0 L 1.0625 -7.5625 L 2.3125 -7.5625 L 2.3125 -6.46875 C 2.5625 -6.863281 2.894531 -7.164062 3.3125 -7.375 C 3.738281 -7.59375 4.203125 -7.703125 4.703125 -7.703125 C 5.335938 -7.703125 5.898438 -7.554688 6.390625 -7.265625 C 6.878906 -6.984375 7.242188 -6.566406 7.484375 -6.015625 C 7.691406 -6.546875 8.035156 -6.957031 8.515625 -7.25 C 9.003906 -7.550781 9.550781 -7.703125 10.15625 -7.703125 Z M 10.15625 -7.703125 "/></g></g><g style="fill:#030d4e;fill-opacity:1;"><g transform="translate(187.871009, 82.025896)"><path style="stroke:none" d="M 7.953125 -4.0625 C 7.953125 -3.832031 7.941406 -3.582031 7.921875 -3.3125 L 1.875 -3.3125 C 1.925781 -2.5625 2.179688 -1.976562 2.640625 -1.5625 C 3.109375 -1.144531 3.671875 -0.9375 4.328125 -0.9375 C 4.867188 -0.9375 5.320312 -1.0625 5.6875 -1.3125 C 6.050781 -1.570312 6.304688 -1.910156 6.453125 -2.328125 L 7.8125 -2.328125 C 7.601562 -1.597656 7.195312 -1.003906 6.59375 -0.546875 C 5.988281 -0.0976562 5.234375 0.125 4.328125 0.125 C 3.609375 0.125 2.96875 -0.0351562 2.40625 -0.359375 C 1.84375 -0.679688 1.398438 -1.140625 1.078125 -1.734375 C 0.753906 -2.328125 0.59375 -3.015625 0.59375 -3.796875 C 0.59375 -4.578125 0.75 -5.257812 1.0625 -5.84375 C 1.375 -6.4375 1.8125 -6.890625 2.375 -7.203125 C 2.945312 -7.523438 3.597656 -7.6875 4.328125 -7.6875 C 5.046875 -7.6875 5.679688 -7.53125 6.234375 -7.21875 C 6.785156 -6.90625 7.207031 -6.472656 7.5 -5.921875 C 7.800781 -5.378906 7.953125 -4.757812 7.953125 -4.0625 Z M 6.65625 -4.328125 C 6.65625 -4.804688 6.550781 -5.21875 6.34375 -5.5625 C 6.132812 -5.90625 5.847656 -6.164062 5.484375 -6.34375 C 5.117188 -6.53125 4.71875 -6.625 4.28125 -6.625 C 3.644531 -6.625 3.101562 -6.421875 2.65625 -6.015625 C 2.207031 -5.609375 1.953125 -5.046875 1.890625 -4.328125 Z M 6.65625 -4.328125 "/></g></g><g style="fill:#030d4e;fill-opacity:1;"><g transform="translate(196.42812, 82.025896)"><path style="stroke:none" d="M 4.75 -7.703125 C 5.664062 -7.703125 6.410156 -7.421875 6.984375 -6.859375 C 7.554688 -6.304688 7.84375 -5.503906 7.84375 -4.453125 L 7.84375 0 L 6.59375 0 L 6.59375 -4.28125 C 6.59375 -5.03125 6.40625 -5.601562 6.03125 -6 C 5.65625 -6.40625 5.140625 -6.609375 4.484375 -6.609375 C 3.816406 -6.609375 3.285156 -6.398438 2.890625 -5.984375 C 2.503906 -5.566406 2.3125 -4.96875 2.3125 -4.1875 L 2.3125 0 L 1.0625 0 L 1.0625 -7.5625 L 2.3125 -7.5625 L 2.3125 -6.484375 C 2.5625 -6.867188 2.898438 -7.164062 3.328125 -7.375 C 3.753906 -7.59375 4.226562 -7.703125 4.75 -7.703125 Z M 4.75 -7.703125 "/></g></g><g style="fill:#030d4e;fill-opacity:1;"><g transform="translate(205.261262, 82.025896)"><path style="stroke:none" d="M 2.59375 -6.53125 L 2.59375 -2.0625 C 2.59375 -1.695312 2.671875 -1.4375 2.828125 -1.28125 C 2.984375 -1.132812 3.253906 -1.0625 3.640625 -1.0625 L 4.5625 -1.0625 L 4.5625 0 L 3.4375 0 C 2.738281 0 2.210938 -0.160156 1.859375 -0.484375 C 1.515625 -0.804688 1.34375 -1.332031 1.34375 -2.0625 L 1.34375 -6.53125 L 0.359375 -6.53125 L 0.359375 -7.5625 L 1.34375 -7.5625 L 1.34375 -9.46875 L 2.59375 -9.46875 L 2.59375 -7.5625 L 4.5625 -7.5625 L 4.5625 -6.53125 Z M 2.59375 -6.53125 "/></g></g><g style="fill:#030d4e;fill-opacity:1;"><g transform="translate(210.285116, 82.025896)"><path style="stroke:none" d=""/></g></g><g style="fill:#030d4e;fill-opacity:1;"><g transform="translate(213.970193, 82.025896)"><path style="stroke:none" d="M 2.640625 1.46875 L 1.375 1.46875 L 1.375 -10.96875 L 2.640625 -10.96875 Z M 2.640625 1.46875 "/></g></g><g style="fill:#030d4e;fill-opacity:1;"><g transform="translate(217.986511, 82.025896)"><path style="stroke:none" d=""/></g></g><g style="fill:#030d4e;fill-opacity:1;"><g transform="translate(221.671589, 82.025896)"><path style="stroke:none" d="M 2.3125 -9.609375 L 2.3125 0 L 1.0625 0 L 1.0625 -9.609375 Z M 2.3125 -9.609375 "/></g></g><g style="fill:#030d4e;fill-opacity:1;"><g transform="translate(225.06683, 82.025896)"><path style="stroke:none" d="M 4.75 -7.703125 C 5.664062 -7.703125 6.410156 -7.421875 6.984375 -6.859375 C 7.554688 -6.304688 7.84375 -5.503906 7.84375 -4.453125 L 7.84375 0 L 6.59375 0 L 6.59375 -4.28125 C 6.59375 -5.03125 6.40625 -5.601562 6.03125 -6 C 5.65625 -6.40625 5.140625 -6.609375 4.484375 -6.609375 C 3.816406 -6.609375 3.285156 -6.398438 2.890625 -5.984375 C 2.503906 -5.566406 2.3125 -4.96875 2.3125 -4.1875 L 2.3125 0 L 1.0625 0 L 1.0625 -7.5625 L 2.3125 -7.5625 L 2.3125 -6.484375 C 2.5625 -6.867188 2.898438 -7.164062 3.328125 -7.375 C 3.753906 -7.59375 4.226562 -7.703125 4.75 -7.703125 Z M 4.75 -7.703125 "/></g></g><g style="fill:#030d4e;fill-opacity:1;"><g transform="translate(233.899972, 82.025896)"><path style="stroke:none" d="M 3.734375 0.125 C 3.160156 0.125 2.640625 0.0234375 2.171875 -0.171875 C 1.710938 -0.367188 1.347656 -0.644531 1.078125 -1 C 0.816406 -1.351562 0.675781 -1.757812 0.65625 -2.21875 L 1.953125 -2.21875 C 1.984375 -1.84375 2.15625 -1.535156 2.46875 -1.296875 C 2.789062 -1.054688 3.207031 -0.9375 3.71875 -0.9375 C 4.195312 -0.9375 4.570312 -1.039062 4.84375 -1.25 C 5.125 -1.46875 5.265625 -1.738281 5.265625 -2.0625 C 5.265625 -2.382812 5.117188 -2.625 4.828125 -2.78125 C 4.535156 -2.945312 4.082031 -3.109375 3.46875 -3.265625 C 2.90625 -3.410156 2.445312 -3.5625 2.09375 -3.71875 C 1.738281 -3.875 1.429688 -4.097656 1.171875 -4.390625 C 0.921875 -4.691406 0.796875 -5.085938 0.796875 -5.578125 C 0.796875 -5.960938 0.910156 -6.316406 1.140625 -6.640625 C 1.367188 -6.960938 1.695312 -7.21875 2.125 -7.40625 C 2.550781 -7.59375 3.035156 -7.6875 3.578125 -7.6875 C 4.410156 -7.6875 5.082031 -7.472656 5.59375 -7.046875 C 6.113281 -6.628906 6.390625 -6.050781 6.421875 -5.3125 L 5.171875 -5.3125 C 5.140625 -5.707031 4.976562 -6.023438 4.6875 -6.265625 C 4.40625 -6.503906 4.019531 -6.625 3.53125 -6.625 C 3.082031 -6.625 2.722656 -6.523438 2.453125 -6.328125 C 2.191406 -6.140625 2.0625 -5.890625 2.0625 -5.578125 C 2.0625 -5.328125 2.140625 -5.117188 2.296875 -4.953125 C 2.453125 -4.796875 2.648438 -4.664062 2.890625 -4.5625 C 3.140625 -4.46875 3.484375 -4.363281 3.921875 -4.25 C 4.460938 -4.101562 4.898438 -3.957031 5.234375 -3.8125 C 5.578125 -3.664062 5.867188 -3.453125 6.109375 -3.171875 C 6.359375 -2.890625 6.488281 -2.519531 6.5 -2.0625 C 6.5 -1.644531 6.382812 -1.269531 6.15625 -0.9375 C 5.925781 -0.601562 5.597656 -0.34375 5.171875 -0.15625 C 4.753906 0.03125 4.273438 0.125 3.734375 0.125 Z M 3.734375 0.125 "/></g></g><g style="fill:#030d4e;fill-opacity:1;"><g transform="translate(241.104502, 82.025896)"><path style="stroke:none" d="M 7.765625 -7.5625 L 7.765625 0 L 6.515625 0 L 6.515625 -1.125 C 6.273438 -0.726562 5.941406 -0.421875 5.515625 -0.203125 C 5.085938 0.00390625 4.613281 0.109375 4.09375 0.109375 C 3.507812 0.109375 2.984375 -0.0078125 2.515625 -0.25 C 2.046875 -0.5 1.675781 -0.863281 1.40625 -1.34375 C 1.132812 -1.832031 1 -2.425781 1 -3.125 L 1 -7.5625 L 2.234375 -7.5625 L 2.234375 -3.296875 C 2.234375 -2.554688 2.421875 -1.984375 2.796875 -1.578125 C 3.171875 -1.179688 3.6875 -0.984375 4.34375 -0.984375 C 5.019531 -0.984375 5.550781 -1.1875 5.9375 -1.59375 C 6.320312 -2.007812 6.515625 -2.613281 6.515625 -3.40625 L 6.515625 -7.5625 Z M 7.765625 -7.5625 "/></g></g><g style="fill:#030d4e;fill-opacity:1;"><g transform="translate(249.937644, 82.025896)"><path style="stroke:none" d="M 2.3125 -6.328125 C 2.539062 -6.765625 2.859375 -7.101562 3.265625 -7.34375 C 3.671875 -7.582031 4.171875 -7.703125 4.765625 -7.703125 L 4.765625 -6.40625 L 4.421875 -6.40625 C 3.015625 -6.40625 2.3125 -5.640625 2.3125 -4.109375 L 2.3125 0 L 1.0625 0 L 1.0625 -7.5625 L 2.3125 -7.5625 Z M 2.3125 -6.328125 "/></g></g><g style="fill:#030d4e;fill-opacity:1;"><g transform="translate(255.085709, 82.025896)"><path style="stroke:none" d="M 0.59375 -3.8125 C 0.59375 -4.582031 0.75 -5.257812 1.0625 -5.84375 C 1.375 -6.425781 1.800781 -6.878906 2.34375 -7.203125 C 2.894531 -7.523438 3.507812 -7.6875 4.1875 -7.6875 C 4.84375 -7.6875 5.414062 -7.539062 5.90625 -7.25 C 6.394531 -6.96875 6.757812 -6.613281 7 -6.1875 L 7 -7.5625 L 8.265625 -7.5625 L 8.265625 0 L 7 0 L 7 -1.40625 C 6.75 -0.96875 6.375 -0.601562 5.875 -0.3125 C 5.382812 -0.0195312 4.816406 0.125 4.171875 0.125 C 3.492188 0.125 2.882812 -0.0390625 2.34375 -0.375 C 1.800781 -0.707031 1.375 -1.171875 1.0625 -1.765625 C 0.75 -2.359375 0.59375 -3.039062 0.59375 -3.8125 Z M 7 -3.796875 C 7 -4.367188 6.882812 -4.863281 6.65625 -5.28125 C 6.425781 -5.707031 6.113281 -6.03125 5.71875 -6.25 C 5.320312 -6.476562 4.890625 -6.59375 4.421875 -6.59375 C 3.953125 -6.59375 3.523438 -6.484375 3.140625 -6.265625 C 2.753906 -6.046875 2.445312 -5.722656 2.21875 -5.296875 C 1.988281 -4.867188 1.875 -4.375 1.875 -3.8125 C 1.875 -3.226562 1.988281 -2.722656 2.21875 -2.296875 C 2.445312 -1.867188 2.753906 -1.539062 3.140625 -1.3125 C 3.523438 -1.09375 3.953125 -0.984375 4.421875 -0.984375 C 4.890625 -0.984375 5.320312 -1.09375 5.71875 -1.3125 C 6.113281 -1.539062 6.425781 -1.867188 6.65625 -2.296875 C 6.882812 -2.722656 7 -3.222656 7 -3.796875 Z M 7 -3.796875 "/></g></g><g style="fill:#030d4e;fill-opacity:1;"><g transform="translate(264.415717, 82.025896)"><path style="stroke:none" d="M 4.75 -7.703125 C 5.664062 -7.703125 6.410156 -7.421875 6.984375 -6.859375 C 7.554688 -6.304688 7.84375 -5.503906 7.84375 -4.453125 L 7.84375 0 L 6.59375 0 L 6.59375 -4.28125 C 6.59375 -5.03125 6.40625 -5.601562 6.03125 -6 C 5.65625 -6.40625 5.140625 -6.609375 4.484375 -6.609375 C 3.816406 -6.609375 3.285156 -6.398438 2.890625 -5.984375 C 2.503906 -5.566406 2.3125 -4.96875 2.3125 -4.1875 L 2.3125 0 L 1.0625 0 L 1.0625 -7.5625 L 2.3125 -7.5625 L 2.3125 -6.484375 C 2.5625 -6.867188 2.898438 -7.164062 3.328125 -7.375 C 3.753906 -7.59375 4.226562 -7.703125 4.75 -7.703125 Z M 4.75 -7.703125 "/></g></g><g style="fill:#030d4e;fill-opacity:1;"><g transform="translate(273.24886, 82.025896)"><path style="stroke:none" d="M 0.59375 -3.796875 C 0.59375 -4.578125 0.75 -5.257812 1.0625 -5.84375 C 1.375 -6.425781 1.804688 -6.878906 2.359375 -7.203125 C 2.921875 -7.523438 3.5625 -7.6875 4.28125 -7.6875 C 5.207031 -7.6875 5.972656 -7.457031 6.578125 -7 C 7.179688 -6.550781 7.578125 -5.925781 7.765625 -5.125 L 6.421875 -5.125 C 6.285156 -5.59375 6.03125 -5.957031 5.65625 -6.21875 C 5.289062 -6.488281 4.832031 -6.625 4.28125 -6.625 C 3.5625 -6.625 2.976562 -6.375 2.53125 -5.875 C 2.09375 -5.382812 1.875 -4.691406 1.875 -3.796875 C 1.875 -2.878906 2.09375 -2.171875 2.53125 -1.671875 C 2.976562 -1.179688 3.5625 -0.9375 4.28125 -0.9375 C 4.832031 -0.9375 5.289062 -1.0625 5.65625 -1.3125 C 6.019531 -1.570312 6.273438 -1.941406 6.421875 -2.421875 L 7.765625 -2.421875 C 7.566406 -1.648438 7.160156 -1.03125 6.546875 -0.5625 C 5.941406 -0.101562 5.1875 0.125 4.28125 0.125 C 3.5625 0.125 2.921875 -0.0351562 2.359375 -0.359375 C 1.804688 -0.679688 1.375 -1.132812 1.0625 -1.71875 C 0.75 -2.3125 0.59375 -3.003906 0.59375 -3.796875 Z M 0.59375 -3.796875 "/></g></g><g style="fill:#030d4e;fill-opacity:1;"><g transform="translate(281.62654, 82.025896)"><path style="stroke:none" d="M 7.953125 -4.0625 C 7.953125 -3.832031 7.941406 -3.582031 7.921875 -3.3125 L 1.875 -3.3125 C 1.925781 -2.5625 2.179688 -1.976562 2.640625 -1.5625 C 3.109375 -1.144531 3.671875 -0.9375 4.328125 -0.9375 C 4.867188 -0.9375 5.320312 -1.0625 5.6875 -1.3125 C 6.050781 -1.570312 6.304688 -1.910156 6.453125 -2.328125 L 7.8125 -2.328125 C 7.601562 -1.597656 7.195312 -1.003906 6.59375 -0.546875 C 5.988281 -0.0976562 5.234375 0.125 4.328125 0.125 C 3.609375 0.125 2.96875 -0.0351562 2.40625 -0.359375 C 1.84375 -0.679688 1.398438 -1.140625 1.078125 -1.734375 C 0.753906 -2.328125 0.59375 -3.015625 0.59375 -3.796875 C 0.59375 -4.578125 0.75 -5.257812 1.0625 -5.84375 C 1.375 -6.4375 1.8125 -6.890625 2.375 -7.203125 C 2.945312 -7.523438 3.597656 -7.6875 4.328125 -7.6875 C 5.046875 -7.6875 5.679688 -7.53125 6.234375 -7.21875 C 6.785156 -6.90625 7.207031 -6.472656 7.5 -5.921875 C 7.800781 -5.378906 7.953125 -4.757812 7.953125 -4.0625 Z M 6.65625 -4.328125 C 6.65625 -4.804688 6.550781 -5.21875 6.34375 -5.5625 C 6.132812 -5.90625 5.847656 -6.164062 5.484375 -6.34375 C 5.117188 -6.53125 4.71875 -6.625 4.28125 -6.625 C 3.644531 -6.625 3.101562 -6.421875 2.65625 -6.015625 C 2.207031 -5.609375 1.953125 -5.046875 1.890625 -4.328125 Z M 6.65625 -4.328125 "/></g></g></g></svg>