<svg width="426" height="115" viewBox="0 0 426 115" fill="none" xmlns="http://www.w3.org/2000/svg">
<path d="M24.0981 23.2307C27.1398 23.2307 30.1085 23.6786 33.0148 24.564C35.9158 25.439 38.0669 26.3088 39.4731 27.1682L41.5148 28.5432L36.3481 38.7515C35.9315 38.4755 35.3585 38.1213 34.6398 37.689C33.9158 37.262 32.5565 36.6838 30.5565 35.9599C28.5565 35.2411 26.6919 34.8765 24.9731 34.8765C22.8325 34.8765 21.1867 35.3297 20.0356 36.2307C18.8794 37.137 18.3065 38.3661 18.3065 39.9182C18.3065 40.6838 18.5773 41.3974 19.119 42.064C19.6606 42.7203 20.5877 43.4182 21.9106 44.1682C23.2283 44.9182 24.3898 45.5224 25.3898 45.9807C26.3898 46.4286 27.9315 47.1005 30.0148 48.0015C33.6398 49.5588 36.7335 51.663 39.3065 54.314C41.8742 56.9703 43.1606 59.9755 43.1606 63.3349C43.1606 66.5588 42.5773 69.3713 41.4106 71.7724C40.2544 74.1786 38.6658 76.0588 36.6398 77.4182C34.6242 78.7828 32.3898 79.788 29.9315 80.439C27.4835 81.1057 24.8325 81.439 21.9731 81.439C19.5252 81.439 17.1242 81.189 14.7648 80.689C12.4002 80.189 10.421 79.564 8.82729 78.814C7.24396 78.064 5.81167 77.3297 4.53562 76.6057C3.27 75.887 2.34812 75.2724 1.76479 74.7724L0.868958 74.0224L7.26479 63.2515C7.81687 63.7099 8.56687 64.2932 9.51479 65.0015C10.4731 65.6995 12.1658 66.637 14.5981 67.814C17.0252 68.9963 19.1658 69.5849 21.0148 69.5849C26.4158 69.5849 29.119 67.7515 29.119 64.0849C29.119 63.3088 28.921 62.5953 28.5356 61.939C28.1606 61.2724 27.4783 60.6161 26.494 59.9599C25.52 59.3088 24.6606 58.788 23.9106 58.3974C23.1606 58.012 21.9315 57.4182 20.2231 56.6265C18.5252 55.8349 17.2752 55.2307 16.4731 54.814C13.0565 53.137 10.4158 51.038 8.55646 48.5224C6.69187 46.012 5.76479 43.2932 5.76479 40.3765C5.76479 35.3505 7.62417 31.2411 11.3481 28.0432C15.0669 24.8349 19.3169 23.2307 24.0981 23.2307Z" fill="white"/>
<path d="M94.4765 80.4184H76.8515L56.1432 56.585V80.4184H43.3515V24.2517H56.1432V47.1892L75.414 24.2517H90.9349L68.3307 50.8767L94.4765 80.4184Z" fill="white"/>
<path d="M85.0173 24.2517H100.413L112.122 42.2309L123.83 24.2517H139.205L118.517 55.2309V80.4184H105.705V55.2309L85.0173 24.2517Z" fill="white"/>
<path d="M191.364 80.4184L182.364 48.8975L173.384 80.4184H159.155L143.155 24.2517H157.384L166.989 62.7934H167.322L177.53 24.2517H187.197L197.426 62.7934H197.759L207.364 24.2517H221.509L205.509 80.4184H191.364Z" fill="white"/>
<path d="M231.58 24.2517V80.4184H218.789V24.2517H231.58Z" fill="white"/>
<path d="M246.761 45.5642V80.4184H233.97V24.2517H246.761L269.095 59.1059H269.24V24.2517H282.032V80.4184H269.24L246.907 45.5642H246.761Z" fill="white"/>
<path d="M335.207 48.9599V61.1474C333.749 67.8297 330.567 72.887 325.665 76.314C320.775 79.7307 315.311 81.439 309.27 81.439C301.686 81.439 295.228 78.6057 289.895 72.939C284.561 67.262 281.895 60.4078 281.895 52.3765C281.895 44.1995 284.504 37.2932 289.728 31.6682C294.947 26.0432 301.462 23.2307 309.27 23.2307C318.395 23.2307 325.608 26.4338 330.915 32.8349L322.54 42.0224C319.54 37.2047 315.363 34.7932 310.02 34.7932C306.072 34.7932 302.707 36.512 299.915 39.939C297.124 43.3713 295.728 47.5172 295.728 52.3765C295.728 57.1422 297.124 61.2203 299.915 64.6057C302.707 67.9807 306.072 69.6682 310.02 69.6682C313.28 69.6682 316.129 68.6838 318.561 66.7099C320.988 64.7255 322.207 62.1005 322.207 58.8349H309.27V48.9599H335.207Z" fill="white"/>
<path d="M355.774 23.2307C358.816 23.2307 361.784 23.6786 364.691 24.564C367.592 25.439 369.743 26.3088 371.149 27.1682L373.191 28.5432L368.024 38.7515C367.607 38.4755 367.034 38.1213 366.316 37.689C365.592 37.262 364.232 36.6838 362.232 35.9599C360.232 35.2411 358.368 34.8765 356.649 34.8765C354.508 34.8765 352.862 35.3297 351.711 36.2307C350.555 37.137 349.982 38.3661 349.982 39.9182C349.982 40.6838 350.253 41.3974 350.795 42.064C351.336 42.7203 352.264 43.4182 353.586 44.1682C354.904 44.9182 356.066 45.5224 357.066 45.9807C358.066 46.4286 359.607 47.1005 361.691 48.0015C365.316 49.5588 368.409 51.663 370.982 54.314C373.55 56.9703 374.836 59.9755 374.836 63.3349C374.836 66.5588 374.253 69.3713 373.086 71.7724C371.93 74.1786 370.342 76.0588 368.316 77.4182C366.3 78.7828 364.066 79.788 361.607 80.439C359.159 81.1057 356.508 81.439 353.649 81.439C351.201 81.439 348.8 81.189 346.441 80.689C344.076 80.189 342.097 79.564 340.503 78.814C338.92 78.064 337.487 77.3297 336.211 76.6057C334.946 75.887 334.024 75.2724 333.441 74.7724L332.545 74.0224L338.941 63.2515C339.493 63.7099 340.243 64.2932 341.191 65.0015C342.149 65.6995 343.842 66.637 346.274 67.814C348.701 68.9963 350.842 69.5849 352.691 69.5849C358.092 69.5849 360.795 67.7515 360.795 64.0849C360.795 63.3088 360.597 62.5953 360.211 61.939C359.836 61.2724 359.154 60.6161 358.17 59.9599C357.196 59.3088 356.336 58.788 355.586 58.3974C354.836 58.012 353.607 57.4182 351.899 56.6265C350.201 55.8349 348.951 55.2307 348.149 54.814C344.732 53.137 342.092 51.038 340.232 48.5224C338.368 46.012 337.441 43.2932 337.441 40.3765C337.441 35.3505 339.3 31.2411 343.024 28.0432C346.743 24.8349 350.993 23.2307 355.774 23.2307Z" fill="white"/>
<mask id="mask0_1_845" style="mask-type:luminance" maskUnits="userSpaceOnUse" x="338" y="0" width="88" height="97">
<path d="M338.266 0H426V96.6146H338.266V0Z" fill="white"/>
</mask>
<g mask="url(#mask0_1_845)">
<path d="M338.266 96.4479C342.177 90.0052 353.469 84.7708 360.464 82.7865C374.068 78.8229 382.109 79.7604 395.604 75.3542C409.708 70.724 419.844 63.7292 424.688 49.849C428.432 58.5521 422.708 75.6823 414.552 80.1979C405.302 85.3229 399.682 85.875 381.615 85.875C362.557 85.875 361.896 86.0365 353.302 88.4635C348.234 89.7865 342.615 93.6406 338.266 96.4479ZM383.927 69.2396C389.766 66.8125 393.073 65.2188 398.526 62.0781C406.844 57.3385 414.776 50.0156 417.417 40.8698C419.51 33.599 418.297 25.6667 415.38 18.6719C414.443 16.4167 413.344 14.2656 412.13 12.1198C410.641 26.7135 406.073 41.2031 396.484 52.2708C392.63 56.7344 381.063 67.5885 371.755 74.0313C375.057 72.4323 380.625 70.6146 383.927 69.2396ZM390.208 50.8958C393.292 46.9323 394.833 44.7813 397.422 40.4844C401.333 33.9323 403.26 25.9427 401.5 18.5052C400.12 12.5573 396.984 6.99479 392.245 3.30729C390.703 2.09375 389.104 1.04687 387.396 0C392.078 10.7396 394.891 25.0052 392.578 36.4115C391.641 41.0365 388.557 50.8385 383.651 58.9948C385.307 56.625 388.443 53.1563 390.208 50.8958Z" fill="#ED1C24"/>
</g>
<mask id="mask1_1_845" style="mask-type:luminance" maskUnits="userSpaceOnUse" x="152" y="45" width="34" height="19">
<path d="M152.052 45.3333H186V63.9999H152.052V45.3333Z" fill="white"/>
</mask>
<g mask="url(#mask1_1_845)">
<path d="M157.427 58.0833C159.74 56.7135 162.813 55.8333 164.427 56.4739C166.042 57.1093 169.813 61.552 170.089 63.2239C170.328 64.901 176.505 61.677 175.563 60.8229C174.62 59.9687 170.026 56.7135 169.719 55.5573C169.385 54.401 172.885 53.9166 174.557 51.7864C176.234 49.6562 179.031 48.5 180.646 48.5C182.286 48.5 186.792 47.8333 184.781 47.375C181.74 46.6458 174.193 46.125 172.063 45.5781C169.932 45.0312 167.073 49.1979 165.703 49.0156C164.339 48.8333 163.302 45.7916 162.266 46.2812C161.234 46.7656 161.781 50.2656 161.26 50.5104C160.745 50.75 157.094 51.1458 155.786 53.0052C154.479 54.8593 152.167 61.2812 152.62 63.3177C153.047 65.2968 155.115 59.4843 157.427 58.0833Z" fill="#3995AD"/>
</g>
<path d="M212.193 64.4741C211.375 65.448 206.568 69.7397 205.016 71.6564C203.464 73.573 202.792 74.7866 201 73.8751C199.203 72.9636 196.589 70.8647 195.646 69.7397C194.698 68.5834 191.599 63.2866 191.234 63.7136C190.865 64.1407 191.599 69.7397 194.458 71.1043C197.349 72.4741 198.776 73.4168 197.714 73.6616C196.677 73.9064 196.312 72.8126 195.885 73.7814C195.464 74.7553 195.37 75.3334 196.068 75.1511C196.802 75.0001 198.505 76.4636 199.781 77.6772C201.057 78.8959 204.073 79.3543 206.625 79.2293C209.182 79.1095 209.245 78.8022 209.792 78.4689C210.339 78.1355 207.328 78.073 205.839 77.2814C204.344 76.4897 204.495 76.2761 204.922 75.7032C205.349 75.1511 205.896 74.7553 207.599 73.7814C209.302 72.8126 211.193 71.047 211.708 68.8855C212.255 66.7241 212.651 63.9272 212.193 64.4741Z" fill="#3995AD"/>
<mask id="mask2_1_845" style="mask-type:luminance" maskUnits="userSpaceOnUse" x="23" y="38" width="47" height="28">
<path d="M23.3802 38.6667H70V65.3334H23.3802V38.6667Z" fill="white"/>
</mask>
<g mask="url(#mask2_1_845)">
<path d="M30.901 56.3178C34.1354 54.4011 38.4323 53.1667 40.6875 54.0626C42.9427 54.9532 48.2187 61.1667 48.6041 63.5105C48.9427 65.849 57.5833 61.3386 56.2604 60.1459C54.9427 58.9532 48.5208 54.4011 48.0937 52.7865C47.625 51.1667 52.5208 50.4844 54.8594 47.5105C57.1979 44.5313 61.1146 42.9115 63.3698 42.9115C65.6666 42.9115 71.9635 41.974 69.1562 41.3386C64.901 40.3178 54.3489 39.5938 51.3698 38.8282C48.3906 38.0626 44.3906 43.8907 42.4739 43.6355C40.5625 43.3803 39.1146 39.1251 37.6666 39.8073C36.2187 40.4844 36.9844 45.3803 36.2656 45.7188C35.5416 46.0626 30.4323 46.6146 28.6041 49.2084C26.776 51.8073 23.5416 60.7865 24.1771 63.6355C24.776 66.4011 27.6666 58.2761 30.901 56.3178Z" fill="#3995AD"/>
</g>
<mask id="mask3_1_845" style="mask-type:luminance" maskUnits="userSpaceOnUse" x="78" y="64" width="31" height="19">
<path d="M78 64H108.667V82.2292H78V64Z" fill="white"/>
</mask>
<g mask="url(#mask3_1_845)">
<path d="M107.495 65.2501C106.349 66.6147 99.625 72.6147 97.4531 75.297C95.2864 77.9741 94.3489 79.6772 91.8385 78.4012C89.3281 77.1251 85.6667 74.1876 84.3489 72.6147C83.0312 70.9949 78.6875 63.5939 78.1771 64.1876C77.6667 64.7866 78.6875 72.6147 82.6875 74.5314C86.7292 76.4428 88.7292 77.7657 87.2396 78.1043C85.7969 78.4428 85.2864 76.9116 84.6875 78.2762C84.0937 79.6355 83.9635 80.4428 84.9427 80.1876C85.9635 79.9741 88.3489 82.021 90.1354 83.7189C91.9219 85.422 96.1354 86.0626 99.7083 85.8907C103.281 85.7189 103.37 85.297 104.135 84.8282C104.901 84.3595 100.687 84.2762 98.6042 83.1668C96.5156 82.0626 96.7292 81.7657 97.3281 80.9532C97.9219 80.1876 98.6875 79.6355 101.073 78.2762C103.453 76.9116 106.094 74.4428 106.818 71.422C107.583 68.4012 108.135 64.4845 107.495 65.2501Z" fill="#3995AD"/>
</g>
<path d="M52.8951 96.5554V109.368H51.2285V103.555H44.6868V109.368H43.0201V96.5554H44.6868V102.18H51.2285V96.5554H52.8951Z" fill="white"/>
<path d="M60.1504 109.535C59.2025 109.535 58.3483 109.321 57.5879 108.889C56.8223 108.462 56.2181 107.847 55.7754 107.055C55.3431 106.264 55.1296 105.347 55.1296 104.305C55.1296 103.279 55.3483 102.368 55.7962 101.576C56.239 100.785 56.8483 100.18 57.6296 99.7638C58.4056 99.3367 59.2754 99.1179 60.2337 99.1179C61.1765 99.1179 62.0358 99.3367 62.8171 99.7638C63.5931 100.18 64.2025 100.785 64.6504 101.576C65.0931 102.358 65.3171 103.264 65.3171 104.305C65.3171 105.347 65.0879 106.264 64.6296 107.055C64.1712 107.847 63.5462 108.462 62.7546 108.889C61.9733 109.321 61.1087 109.535 60.1504 109.535ZM60.1504 108.055C60.7442 108.055 61.3067 107.92 61.8379 107.639C62.364 107.363 62.7858 106.941 63.1087 106.368C63.4421 105.8 63.6087 105.113 63.6087 104.305C63.6087 103.503 63.4473 102.821 63.1296 102.264C62.8067 101.696 62.39 101.274 61.8796 100.993C61.364 100.717 60.8067 100.576 60.2129 100.576C59.5983 100.576 59.0358 100.717 58.5254 100.993C58.0098 101.274 57.5983 101.696 57.2962 102.264C56.989 102.821 56.8379 103.503 56.8379 104.305C56.8379 105.128 56.9837 105.821 57.2754 106.389C57.5775 106.962 57.9837 107.384 58.4837 107.66C58.9942 107.925 59.5515 108.055 60.1504 108.055Z" fill="white"/>
<path d="M69.1988 95.7637V109.368H67.5321V95.7637H69.1988Z" fill="white"/>
<path d="M72.9133 97.6596C72.606 97.6596 72.3404 97.5502 72.1216 97.3263C71.8976 97.1075 71.7883 96.8367 71.7883 96.5138C71.7883 96.196 71.8976 95.9252 72.1216 95.7013C72.3404 95.4825 72.606 95.3679 72.9133 95.3679C73.231 95.3679 73.4966 95.4825 73.7049 95.7013C73.9133 95.9252 74.0174 96.196 74.0174 96.5138C74.0174 96.8367 73.9133 97.1075 73.7049 97.3263C73.4966 97.5502 73.231 97.6596 72.9133 97.6596ZM73.7258 99.2846V109.368H72.0591V99.2846H73.7258Z" fill="white"/>
<path d="M75.9611 104.285C75.9611 103.258 76.1694 102.357 76.5861 101.576C77.0027 100.8 77.5704 100.196 78.2944 99.7637C79.0288 99.3366 79.8465 99.1178 80.7527 99.1178C81.5444 99.1178 82.2736 99.3001 82.9402 99.6595C83.6173 100.024 84.1381 100.503 84.5027 101.097V95.7637H86.1902V109.368H84.5027V107.472C84.1694 108.071 83.6746 108.566 83.0236 108.951C82.3673 109.342 81.6121 109.535 80.7527 109.535C79.8465 109.535 79.0288 109.316 78.2944 108.868C77.5704 108.425 77.0027 107.805 76.5861 107.014C76.1694 106.222 75.9611 105.316 75.9611 104.285ZM84.5027 104.305C84.5027 103.545 84.3465 102.883 84.0444 102.326C83.7371 101.758 83.3204 101.326 82.7944 101.035C82.2631 100.732 81.6902 100.576 81.0652 100.576C80.4402 100.576 79.8673 100.722 79.3569 101.014C78.8413 101.305 78.4298 101.738 78.1277 102.305C77.8204 102.878 77.6694 103.535 77.6694 104.285C77.6694 105.066 77.8204 105.738 78.1277 106.305C78.4298 106.878 78.8413 107.316 79.3569 107.618C79.8673 107.91 80.4402 108.055 81.0652 108.055C81.6902 108.055 82.2631 107.91 82.7944 107.618C83.3204 107.316 83.7371 106.878 84.0444 106.305C84.3465 105.738 84.5027 105.071 84.5027 104.305Z" fill="white"/>
<path d="M88.4011 104.285C88.4011 103.259 88.6094 102.358 89.0261 101.576C89.4428 100.8 90.0105 100.196 90.7344 99.7638C91.4688 99.3367 92.2865 99.1179 93.1928 99.1179C94.0678 99.1179 94.8282 99.3158 95.4844 99.7013C96.1355 100.076 96.6198 100.55 96.9428 101.118V99.2846H98.6303V109.368H96.9428V107.493C96.6094 108.076 96.1094 108.566 95.4428 108.951C94.7865 109.342 94.0313 109.535 93.1719 109.535C92.2657 109.535 91.4532 109.316 90.7344 108.868C90.0105 108.425 89.4428 107.805 89.0261 107.014C88.6094 106.222 88.4011 105.316 88.4011 104.285ZM96.9428 104.305C96.9428 103.545 96.7865 102.884 96.4844 102.326C96.1771 101.759 95.7605 101.326 95.2344 101.035C94.7032 100.733 94.1303 100.576 93.5053 100.576C92.8803 100.576 92.3073 100.722 91.7969 101.014C91.2813 101.305 90.8698 101.738 90.5678 102.305C90.2605 102.878 90.1094 103.535 90.1094 104.285C90.1094 105.066 90.2605 105.738 90.5678 106.305C90.8698 106.878 91.2813 107.316 91.7969 107.618C92.3073 107.91 92.8803 108.055 93.5053 108.055C94.1303 108.055 94.7032 107.91 95.2344 107.618C95.7605 107.316 96.1771 106.878 96.4844 106.305C96.7865 105.738 96.9428 105.071 96.9428 104.305Z" fill="white"/>
<path d="M110.154 99.2844L104.07 114.118H102.341L104.341 109.264L100.279 99.2844H102.133L105.299 107.451L108.424 99.2844H110.154Z" fill="white"/>
<path d="M115.389 109.535C114.624 109.535 113.931 109.399 113.306 109.139C112.691 108.878 112.207 108.509 111.847 108.035C111.499 107.566 111.311 107.024 111.285 106.41H113.014C113.056 106.91 113.285 107.321 113.702 107.639C114.129 107.962 114.686 108.118 115.368 108.118C116.004 108.118 116.504 107.983 116.868 107.701C117.243 107.41 117.431 107.05 117.431 106.618C117.431 106.191 117.233 105.868 116.847 105.66C116.457 105.441 115.853 105.222 115.035 105.014C114.285 104.821 113.67 104.618 113.202 104.41C112.728 104.201 112.316 103.904 111.972 103.514C111.639 103.113 111.472 102.587 111.472 101.93C111.472 101.42 111.624 100.946 111.931 100.514C112.233 100.087 112.67 99.7429 113.243 99.4929C113.811 99.2429 114.457 99.1179 115.181 99.1179C116.29 99.1179 117.186 99.4044 117.868 99.9721C118.561 100.529 118.931 101.3 118.972 102.285H117.306C117.264 101.759 117.045 101.337 116.66 101.014C116.285 100.696 115.769 100.535 115.118 100.535C114.519 100.535 114.04 100.67 113.681 100.93C113.332 101.18 113.16 101.514 113.16 101.93C113.16 102.264 113.264 102.545 113.472 102.764C113.681 102.972 113.941 103.149 114.264 103.285C114.597 103.41 115.056 103.55 115.639 103.701C116.358 103.899 116.941 104.092 117.389 104.285C117.847 104.483 118.233 104.764 118.556 105.139C118.889 105.514 119.061 106.009 119.077 106.618C119.077 107.175 118.92 107.675 118.618 108.118C118.311 108.566 117.874 108.91 117.306 109.16C116.749 109.41 116.108 109.535 115.389 109.535Z" fill="white"/>
<path d="M128.45 111.326H126.763V94.7429H128.45V111.326Z" fill="white"/>
<path d="M138.281 96.5554V109.368H136.615V96.5554H138.281Z" fill="white"/>
<path d="M146.058 99.0969C147.277 99.0969 148.272 99.4719 149.037 100.222C149.798 100.962 150.183 102.029 150.183 103.43V109.368H148.517V103.659C148.517 102.659 148.267 101.899 147.767 101.368C147.267 100.826 146.579 100.555 145.704 100.555C144.814 100.555 144.105 100.837 143.579 101.389C143.064 101.946 142.808 102.743 142.808 103.784V109.368H141.142V99.2844H142.808V100.722C143.142 100.212 143.59 99.8157 144.162 99.5344C144.73 99.2428 145.36 99.0969 146.058 99.0969Z" fill="white"/>
<path d="M156.669 107.826L159.794 99.2844H161.586L157.628 109.368H155.669L151.732 99.2844H153.523L156.669 107.826Z" fill="white"/>
<path d="M172.43 103.951C172.43 104.259 172.415 104.592 172.389 104.951H164.326C164.394 105.951 164.732 106.733 165.347 107.285C165.972 107.842 166.722 108.118 167.597 108.118C168.316 108.118 168.92 107.951 169.41 107.618C169.894 107.274 170.232 106.821 170.43 106.264H172.243C171.962 107.238 171.42 108.029 170.618 108.639C169.811 109.238 168.805 109.535 167.597 109.535C166.639 109.535 165.785 109.321 165.035 108.889C164.285 108.462 163.691 107.847 163.264 107.055C162.831 106.264 162.618 105.347 162.618 104.305C162.618 103.264 162.826 102.358 163.243 101.576C163.66 100.785 164.243 100.18 164.993 99.7638C165.753 99.3367 166.623 99.1179 167.597 99.1179C168.555 99.1179 169.399 99.3263 170.139 99.7429C170.873 100.16 171.436 100.738 171.826 101.472C172.227 102.196 172.43 103.024 172.43 103.951ZM170.701 103.597C170.701 102.962 170.561 102.41 170.285 101.951C170.003 101.493 169.623 101.149 169.139 100.91C168.649 100.66 168.118 100.535 167.535 100.535C166.686 100.535 165.962 100.805 165.368 101.347C164.769 101.889 164.43 102.639 164.347 103.597H170.701Z" fill="white"/>
<path d="M178.215 109.535C177.449 109.535 176.757 109.399 176.132 109.139C175.517 108.878 175.033 108.509 174.673 108.035C174.324 107.566 174.137 107.024 174.111 106.41H175.84C175.882 106.91 176.111 107.321 176.527 107.639C176.954 107.962 177.512 108.118 178.194 108.118C178.829 108.118 179.329 107.983 179.694 107.701C180.069 107.41 180.257 107.05 180.257 106.618C180.257 106.191 180.059 105.868 179.673 105.66C179.283 105.441 178.678 105.222 177.861 105.014C177.111 104.821 176.496 104.618 176.027 104.41C175.553 104.201 175.142 103.904 174.798 103.514C174.465 103.113 174.298 102.587 174.298 101.93C174.298 101.42 174.449 100.946 174.757 100.514C175.059 100.087 175.496 99.7429 176.069 99.4929C176.637 99.2429 177.283 99.1179 178.007 99.1179C179.116 99.1179 180.012 99.4044 180.694 99.9721C181.387 100.529 181.757 101.3 181.798 102.285H180.132C180.09 101.759 179.871 101.337 179.486 101.014C179.111 100.696 178.595 100.535 177.944 100.535C177.345 100.535 176.866 100.67 176.507 100.93C176.158 101.18 175.986 101.514 175.986 101.93C175.986 102.264 176.09 102.545 176.298 102.764C176.507 102.972 176.767 103.149 177.09 103.285C177.423 103.41 177.882 103.55 178.465 103.701C179.184 103.899 179.767 104.092 180.215 104.285C180.673 104.483 181.059 104.764 181.382 105.139C181.715 105.514 181.887 106.009 181.902 106.618C181.902 107.175 181.746 107.675 181.444 108.118C181.137 108.566 180.699 108.91 180.132 109.16C179.574 109.41 178.934 109.535 178.215 109.535Z" fill="white"/>
<path d="M186.3 100.66V106.618C186.3 107.108 186.404 107.451 186.613 107.66C186.821 107.858 187.18 107.951 187.696 107.951H188.925V109.368H187.425C186.493 109.368 185.79 109.154 185.321 108.722C184.863 108.295 184.633 107.592 184.633 106.618V100.66H183.321V99.2846H184.633V96.7429H186.3V99.2846H188.925V100.66H186.3Z" fill="white"/>
<path d="M203.082 99.0969C203.858 99.0969 204.551 99.2636 205.165 99.5969C205.79 99.9198 206.275 100.404 206.624 101.055C206.983 101.712 207.165 102.503 207.165 103.43V109.368H205.499V103.659C205.499 102.659 205.249 101.899 204.749 101.368C204.259 100.826 203.592 100.555 202.749 100.555C201.874 100.555 201.176 100.837 200.665 101.389C200.15 101.946 199.894 102.753 199.894 103.805V109.368H198.249V103.659C198.249 102.659 197.999 101.899 197.499 101.368C196.999 100.826 196.321 100.555 195.478 100.555C194.613 100.555 193.92 100.837 193.394 101.389C192.879 101.946 192.624 102.753 192.624 103.805V109.368H190.957V99.2844H192.624V100.743C192.957 100.217 193.4 99.8157 193.957 99.5344C194.525 99.2428 195.144 99.0969 195.811 99.0969C196.655 99.0969 197.405 99.2948 198.061 99.6803C198.712 100.055 199.196 100.613 199.519 101.347C199.795 100.639 200.254 100.092 200.894 99.7011C201.545 99.3 202.275 99.0969 203.082 99.0969Z" fill="white"/>
<path d="M219.099 103.951C219.099 104.259 219.083 104.592 219.057 104.951H210.995C211.062 105.951 211.401 106.733 212.015 107.285C212.64 107.842 213.39 108.118 214.265 108.118C214.984 108.118 215.588 107.951 216.078 107.618C216.562 107.274 216.901 106.821 217.099 106.264H218.911C218.63 107.238 218.088 108.029 217.286 108.639C216.479 109.238 215.474 109.535 214.265 109.535C213.307 109.535 212.453 109.321 211.703 108.889C210.953 108.462 210.359 107.847 209.932 107.055C209.5 106.264 209.286 105.347 209.286 104.305C209.286 103.264 209.495 102.358 209.911 101.576C210.328 100.785 210.911 100.18 211.661 99.7638C212.422 99.3367 213.292 99.1179 214.265 99.1179C215.224 99.1179 216.068 99.3263 216.807 99.7429C217.542 100.16 218.104 100.738 218.495 101.472C218.896 102.196 219.099 103.024 219.099 103.951ZM217.37 103.597C217.37 102.962 217.229 102.41 216.953 101.951C216.672 101.493 216.292 101.149 215.807 100.91C215.318 100.66 214.786 100.535 214.203 100.535C213.354 100.535 212.63 100.805 212.036 101.347C211.437 101.889 211.099 102.639 211.015 103.597H217.37Z" fill="white"/>
<path d="M226.237 99.0969C227.456 99.0969 228.451 99.4719 229.217 100.222C229.977 100.962 230.362 102.029 230.362 103.43V109.368H228.696V103.659C228.696 102.659 228.446 101.899 227.946 101.368C227.446 100.826 226.758 100.555 225.883 100.555C224.993 100.555 224.284 100.837 223.758 101.389C223.243 101.946 222.987 102.743 222.987 103.784V109.368H221.321V99.2844H222.987V100.722C223.321 100.212 223.769 99.8157 224.342 99.5344C224.909 99.2428 225.54 99.0969 226.237 99.0969Z" fill="white"/>
<path d="M235.14 100.66V106.618C235.14 107.108 235.244 107.451 235.453 107.66C235.661 107.858 236.02 107.951 236.536 107.951H237.765V109.368H236.265C235.333 109.368 234.63 109.154 234.161 108.722C233.703 108.295 233.473 107.592 233.473 106.618V100.66H232.161V99.2846H233.473V96.7429H235.14V99.2846H237.765V100.66H235.14Z" fill="white"/>
<path d="M246.814 111.326H245.127V94.7429H246.814V111.326Z" fill="white"/>
<path d="M256.645 96.5554V109.368H254.979V96.5554H256.645Z" fill="white"/>
<path d="M264.422 99.0969C265.641 99.0969 266.636 99.4719 267.402 100.222C268.162 100.962 268.547 102.029 268.547 103.43V109.368H266.881V103.659C266.881 102.659 266.631 101.899 266.131 101.368C265.631 100.826 264.943 100.555 264.068 100.555C263.178 100.555 262.469 100.837 261.943 101.389C261.428 101.946 261.172 102.743 261.172 103.784V109.368H259.506V99.2844H261.172V100.722C261.506 100.212 261.954 99.8157 262.527 99.5344C263.094 99.2428 263.725 99.0969 264.422 99.0969Z" fill="white"/>
<path d="M274.846 109.535C274.08 109.535 273.387 109.399 272.762 109.139C272.148 108.878 271.664 108.509 271.304 108.035C270.955 107.566 270.768 107.024 270.742 106.41H272.471C272.512 106.91 272.742 107.321 273.158 107.639C273.585 107.962 274.143 108.118 274.825 108.118C275.46 108.118 275.96 107.983 276.325 107.701C276.7 107.41 276.887 107.05 276.887 106.618C276.887 106.191 276.69 105.868 276.304 105.66C275.914 105.441 275.309 105.222 274.492 105.014C273.742 104.821 273.127 104.618 272.658 104.41C272.184 104.201 271.773 103.904 271.429 103.514C271.096 103.113 270.929 102.587 270.929 101.93C270.929 101.42 271.08 100.946 271.387 100.514C271.69 100.087 272.127 99.7429 272.7 99.4929C273.268 99.2429 273.914 99.1179 274.637 99.1179C275.747 99.1179 276.643 99.4044 277.325 99.9721C278.018 100.529 278.387 101.3 278.429 102.285H276.762C276.721 101.759 276.502 101.337 276.117 101.014C275.742 100.696 275.226 100.535 274.575 100.535C273.976 100.535 273.497 100.67 273.137 100.93C272.789 101.18 272.617 101.514 272.617 101.93C272.617 102.264 272.721 102.545 272.929 102.764C273.137 102.972 273.398 103.149 273.721 103.285C274.054 103.41 274.512 103.55 275.096 103.701C275.815 103.899 276.398 104.092 276.846 104.285C277.304 104.483 277.69 104.764 278.012 105.139C278.346 105.514 278.518 106.009 278.533 106.618C278.533 107.175 278.377 107.675 278.075 108.118C277.768 108.566 277.33 108.91 276.762 109.16C276.205 109.41 275.565 109.535 274.846 109.535Z" fill="white"/>
<path d="M289.827 99.2844V109.368H288.16V107.868C287.837 108.399 287.395 108.805 286.827 109.097C286.254 109.373 285.624 109.514 284.931 109.514C284.15 109.514 283.452 109.357 282.827 109.034C282.202 108.701 281.707 108.217 281.348 107.576C280.983 106.925 280.806 106.133 280.806 105.201V99.2844H282.452V104.972C282.452 105.962 282.702 106.722 283.202 107.264C283.702 107.795 284.389 108.055 285.264 108.055C286.165 108.055 286.874 107.784 287.389 107.243C287.9 106.691 288.16 105.883 288.16 104.826V99.2844H289.827Z" fill="white"/>
<path d="M294.334 100.93C294.636 100.347 295.063 99.899 295.604 99.5761C296.146 99.2584 296.813 99.0969 297.604 99.0969V100.826H297.146C295.271 100.826 294.334 101.847 294.334 103.889V109.368H292.667V99.2844H294.334V100.93Z" fill="white"/>
<path d="M298.906 104.285C298.906 103.259 299.114 102.358 299.531 101.576C299.948 100.8 300.515 100.196 301.239 99.7638C301.974 99.3367 302.791 99.1179 303.698 99.1179C304.573 99.1179 305.333 99.3158 305.989 99.7013C306.64 100.076 307.125 100.55 307.448 101.118V99.2846H309.135V109.368H307.448V107.493C307.114 108.076 306.614 108.566 305.948 108.951C305.291 109.342 304.536 109.535 303.677 109.535C302.771 109.535 301.958 109.316 301.239 108.868C300.515 108.425 299.948 107.805 299.531 107.014C299.114 106.222 298.906 105.316 298.906 104.285ZM307.448 104.305C307.448 103.545 307.291 102.884 306.989 102.326C306.682 101.759 306.265 101.326 305.739 101.035C305.208 100.733 304.635 100.576 304.01 100.576C303.385 100.576 302.812 100.722 302.302 101.014C301.786 101.305 301.375 101.738 301.073 102.305C300.765 102.878 300.614 103.535 300.614 104.285C300.614 105.066 300.765 105.738 301.073 106.305C301.375 106.878 301.786 107.316 302.302 107.618C302.812 107.91 303.385 108.055 304.01 108.055C304.635 108.055 305.208 107.91 305.739 107.618C306.265 107.316 306.682 106.878 306.989 106.305C307.291 105.738 307.448 105.071 307.448 104.305Z" fill="white"/>
<path d="M316.888 99.0969C318.106 99.0969 319.101 99.4719 319.867 100.222C320.627 100.962 321.013 102.029 321.013 103.43V109.368H319.346V103.659C319.346 102.659 319.096 101.899 318.596 101.368C318.096 100.826 317.408 100.555 316.533 100.555C315.643 100.555 314.934 100.837 314.408 101.389C313.893 101.946 313.638 102.743 313.638 103.784V109.368H311.971V99.2844H313.638V100.722C313.971 100.212 314.419 99.8157 314.992 99.5344C315.559 99.2428 316.19 99.0969 316.888 99.0969Z" fill="white"/>
<path d="M323.123 104.305C323.123 103.264 323.332 102.358 323.748 101.576C324.165 100.8 324.738 100.196 325.478 99.7638C326.228 99.3367 327.082 99.1179 328.04 99.1179C329.275 99.1179 330.295 99.4252 331.103 100.035C331.905 100.634 332.436 101.467 332.686 102.535H330.894C330.712 101.91 330.373 101.425 329.873 101.076C329.384 100.717 328.775 100.535 328.04 100.535C327.082 100.535 326.301 100.868 325.707 101.535C325.123 102.191 324.832 103.113 324.832 104.305C324.832 105.529 325.123 106.472 325.707 107.139C326.301 107.795 327.082 108.118 328.04 108.118C328.775 108.118 329.384 107.951 329.873 107.618C330.358 107.274 330.696 106.779 330.894 106.139H332.686C332.42 107.17 331.879 107.993 331.061 108.618C330.254 109.233 329.248 109.535 328.04 109.535C327.082 109.535 326.228 109.321 325.478 108.889C324.738 108.462 324.165 107.858 323.748 107.076C323.332 106.285 323.123 105.363 323.123 104.305Z" fill="white"/>
<path d="M344.106 103.951C344.106 104.259 344.091 104.592 344.065 104.951H336.002C336.07 105.951 336.408 106.733 337.023 107.285C337.648 107.842 338.398 108.118 339.273 108.118C339.992 108.118 340.596 107.951 341.085 107.618C341.57 107.274 341.908 106.821 342.106 106.264H343.919C343.637 107.238 343.096 108.029 342.294 108.639C341.486 109.238 340.481 109.535 339.273 109.535C338.315 109.535 337.46 109.321 336.71 108.889C335.96 108.462 335.367 107.847 334.94 107.055C334.507 106.264 334.294 105.347 334.294 104.305C334.294 103.264 334.502 102.358 334.919 101.576C335.335 100.785 335.919 100.18 336.669 99.7638C337.429 99.3367 338.299 99.1179 339.273 99.1179C340.231 99.1179 341.075 99.3263 341.815 99.7429C342.549 100.16 343.111 100.738 343.502 101.472C343.903 102.196 344.106 103.024 344.106 103.951ZM342.377 103.597C342.377 102.962 342.236 102.41 341.96 101.951C341.679 101.493 341.299 101.149 340.815 100.91C340.325 100.66 339.794 100.535 339.21 100.535C338.361 100.535 337.637 100.805 337.044 101.347C336.445 101.889 336.106 102.639 336.023 103.597H342.377Z" fill="white"/>
</svg>
